<?xml version="1.0" encoding="UTF-8"?>
<svg id="Kim_und_Tim" data-name="Kim und Tim" xmlns="http://www.w3.org/2000/svg" viewBox="0 0 3407.23 3182.29">
  <defs>
    <style>
      .cls-1, .cls-2, .cls-3 {
        fill: #00ff64;
      }

      .cls-4 {
        fill: #fff;
      }

      .cls-4, .cls-5 {
        stroke: #00ff64;
        stroke-linecap: round;
        stroke-linejoin: round;
        stroke-width: 21px;
      }

      .cls-2 {
        font-size: 181.95px;
        letter-spacing: -.03em;
      }

      .cls-2, .cls-3 {
        font-family: EuclidCircularB-Bold, 'Euclid Circular B';
        font-weight: 700;
      }

      .cls-3 {
        font-size: 110.86px;
        letter-spacing: -.03em;
      }

      .cls-5 {
        fill: none;
      }
    </style>
  </defs>
  <path class="cls-5" d="m2653.53,3069.95c-39.35-3.44-78.43-15.6-113.92-36.69-14.21-8.45-29.91-14.09-46.38-15.61l-56.43-5.21,16.92,21.52c46.45,59.08,116.75,95.45,191.89,96.4.64,0,1.28.01,1.92.02l10.82.07"/>
  <path class="cls-5" d="m2968.56,3170.29h169.43c0-32.14-26.06-58.2-58.2-58.2h-8.91c30.05-11.11,53.8-36.24,62.38-68.58,8.99-33.85-.28-69.94-24.46-95.28l-13.19-13.82"/>
  <path class="cls-5" d="m2720.07,2872.15h0c13.78-13.63,23.25-31.01,27.21-49.98l16.59-79.45c19.18-91.83,73.16-179.22,144.19-240.49"/>
  <path class="cls-4" d="m2890.23,3138.75c-11.88,1.76-24.62,2.05-38.57.75"/>
  <path class="cls-5" d="m2819.09,3113.49c29.72-10.99,50.9-39.58,50.9-73.12h0c0-71.39-42.65-132.81-103.86-160.18-52.5-23.47-113.48,6.37-127.58,62.12h0c-10.91,43.14-5.08,88.81,16.31,127.83l24.41,44.53"/>
  <path class="cls-5" d="m2704.94,3112.08c-12.59,0-24.27,4.01-33.81,10.83-20.56,14.7-9.36,47.37,15.91,47.37h169.43c0-32.14-26.06-58.2-58.2-58.2h-36.29"/>
  <path class="cls-5" d="m3232.23,2771.25s-11.4,56.3-32.3,86.69c-27.27,39.65-71.13,73.98-119.25,73.98h0c-48.12,0-91.4-29.3-109.27-73.98"/>
  <path class="cls-5" d="m3198.6,2315.96l2.44,26.81c5.5,48.85,24.88,95.1,55.85,133.27h0c37.18,45.83,57.46,103.04,57.46,162.06"/>
  <path class="cls-5" d="m2856.74,2670.49v-3.61c0-66.96,23.19-131.85,65.63-183.65h0c36.33-44.34,56.81-99.55,58.19-156.86l.35-25.9"/>
  <path class="cls-5" d="m3213.19,2397.11c0,27.78-17.48,52.77-43.78,61.73-21.14,7.2-43.63,10.81-67.5,10.81-34.87,0-66.9-7.72-96.11-23.13-21.42-11.3-34.56-33.84-34.56-58.06"/>
  <g>
    <path class="cls-5" d="m2962.82,1955.2c3.37-1.18,6.91-1.78,10.48-1.77h0c17.41.03,31.5,14.17,31.46,31.58"/>
    <path class="cls-5" d="m2935.62,2117.6c-14.05,3.64-29.55-.16-40.26-10.95"/>
    <path class="cls-5" d="m2884.91,2128.24l57.96-150.22c4.41-11.43,11.1-19.41,22.6-23.63h0l-147.64,51.59c-18.79,6.58-26.51,28.97-15.78,45.73l51.03,79.73c7.92,12.38,26.55,10.5,31.84-3.21Z"/>
  </g>
  <path class="cls-5" d="m3231.08,1955.2c-3.37-1.18-6.91-1.78-10.48-1.77h0c-17.41.03-33.54,16.89-33.51,34.3"/>
  <path class="cls-5" d="m3253.85,2116.19c14.6,5.59,31.6,2.63,43.43-8.32"/>
  <path class="cls-5" d="m3308.98,2128.24l-57.96-150.22c-4.41-11.43-10.69-19.24-22.19-23.45h0l147.23,51.41c18.79,6.58,26.51,28.97,15.78,45.73l-51.03,79.73c-7.92,12.38-26.55,10.5-31.84-3.21Z"/>
  <path class="cls-5" d="m3238.04,2070.79l-25.75-48.43c-10.87-20.45-28.7-35.77-49.76-43.86-8.36-3.21-17.22-5.32-26.38-6.11-27.49-2.36-55.45-2.44-83.59-.1-31.91,2.66-60.26,21.46-75.37,49.69l-26.14,48.86c-14.36,26.85-19.07,57.81-13.34,87.71l15.71,82c4.35,22.69,14.5,43.73,29.32,61.14,5.66,6.65,13.58,18.53,17.9,26.12l.04.07c2.76,4.84,4.43,10.18,5.34,15.68,1.14,6.88,3.16,13.4,5.91,19.41,10.32,35.88,43.33,45.39,82.53,45.46,41.87.08,76.81-12.99,84.6-52.59,1.04-3.09,1.91-6.28,2.57-9.56,1.26-6.27,3.07-12.41,5.89-18.15,4.19-8.53,9.47-16.5,15.83-23.57,16.06-17.83,27.07-39.76,31.7-63.52l16.07-82.43c5.83-29.92,1.21-60.93-13.1-87.84Zm-57.25,279.05s0,0,0,0c.13-.5.25-1,.38-1.5-.13.5-.26,1-.38,1.51Zm1.45-7.09c-.19,1.17-.4,2.32-.64,3.47.23-1.15.45-2.3.64-3.47.25-1.6.46-3.23.62-4.87-.16,1.64-.37,3.26-.62,4.87Z"/>
  <path class="cls-1" d="m3161.3,2113.73h.04c12.71.02,22.99,10.35,22.97,23.06-.02,12.7-10.32,22.97-23.01,22.97-.01,0-.03,0-.04,0-12.71-.02-22.99-10.35-22.97-23.06.02-12.7,10.32-22.97,23.01-22.97"/>
  <path class="cls-1" d="m3001.24,2136.35c.02-12.71,10.35-22.99,23.06-22.97,12.71.02,22.99,10.35,22.97,23.06-.02,12.71-10.35,22.99-23.06,22.97-12.71-.02-22.99-10.35-22.97-23.06Z"/>
  <path class="cls-1" d="m3108.32,2303.36l13.16-11.57c8.85-7.78,15.19-18.01,18.21-29.4h0c4.41-16.59-8.08-32.86-25.25-32.9l-40.37-.08c-17.17-.03-29.72,16.19-25.37,32.8h0c2.98,11.4,9.28,21.66,18.1,29.47l13.12,11.62c8.1,7.17,20.27,7.2,28.39.05Z"/>
  <path class="cls-5" d="m3314.35,2638.1c0,23.9,6.62,43.19,10.41,56.41l7.05,24.55c14.05,48.92,13.09,100.93-2.76,149.3l-23.78,72.59c-18.89,57.65-14.81,120.22,11.12,174.77,3.33,7.01,5.37,14.57,6.13,22.29l3.15,32.28h-52.33c-25.86,0-48.69-16.9-56.23-41.64l-3.34-10.93c-2.81-9.2-3.91-18.83-3.25-28.42l24.46-358.42"/>
  <path class="cls-5" d="m2856.74,2670.49c3.74,74.4,5.35,160.64,25.66,234.92l17.42,53.16c16.61,50.68,16.42,105.36-.52,155.92l-5.89,17.58c-6.3,18.79,7.68,38.22,27.5,38.22h45.46c14.77,0,27.21-11.03,29-25.69l3.12-25.66c.7-5.74.73-11.54.09-17.29l-37.31-336.93"/>
  <path class="cls-5" d="m2990.42,2311.81l42.44,25.66c11.94,8.47,25.08,9.4,35.8,5.02l18.01-6.52c4.82-1.74,10.1-1.72,14.91.06l17.63,6.55c10.7,4.42,23.84,3.54,35.82-4.89l40.38-24.21"/>
  <path class="cls-4" d="m3035.72,2082.36c-1.43.08-15.38-5-26-2.17-11.32,3.02-19.3,13.95-19.3,13.95"/>
  <path class="cls-4" d="m3151.08,2082.36c1.43.08,15.38-5,26-2.17,11.32,3.02,19.3,13.95,19.3,13.95"/>
  <path class="cls-5" d="m3144.39,2346.21v1.11c-1.3,26.53-23.18,28.62-50.02,28.57-26.68-.05-48.39-1.97-49.82-28.29"/>
  <circle class="cls-5" cx="3097.31" cy="2537.82" r="68.17"/>
  <path class="cls-5" d="m1971.16,1473.49c171.68,95.59,388.63,73.73,530.04-67.68,1.5-1.5,2.95-3.02,4.41-4.53l-644.89-644.89c-1.51,1.47-3.04,2.92-4.53,4.41-160.18,160.18-166.97,417.28-23.41,595.73"/>
  <path class="cls-5" d="m2810.02,720.7c.59-.57,1.18-1.13,1.75-1.71,66.64-66.64,64.73-176.58-4.25-245.57-68.99-68.99-178.93-70.89-245.57-4.25-.58.58-1.14,1.17-1.71,1.75l249.78,249.78Z"/>
  <line class="cls-5" x1="2201.64" y1="1079.7" x2="2368.3" y2="913.04"/>
  <line class="cls-5" x1="2604.36" y1="691.76" x2="2687.69" y2="608.43"/>
  <circle class="cls-5" cx="1889.61" cy="1428.39" r="88.38"/>
  <line class="cls-5" x1="2073.29" y1="1783.56" x2="1935.77" y2="1503.77"/>
  <line class="cls-5" x1="1842.89" y1="1504.78" x2="1693.28" y2="1783.56"/>
  <path class="cls-5" d="m870.83,1922.04l358.83-807.7c28.04-63.11,74.1-63.19,102.35-.18l617.04,1376c28.26,63.01,72.09,62,97.41-2.25l314.84-798.86c25.32-64.25,75-68.3,110.4-9l318.33,533.26"/>
  <line class="cls-5" x1="1632.19" y1="1783.56" x2="2324.06" y2="1783.56"/>
  <polyline class="cls-5" points="1144.07 1314.54 1207.89 1498.87 1271.71 1314.54 1353.26 1498.87 1412.48 1306.43"/>
  <polyline class="cls-5" points="2298.92 1847.34 2367.27 2044.76 2431.09 1860.42 2512.64 2044.76 2572.78 1849.36"/>
  <path class="cls-5" d="m789.01,916.17c217.54-384.44,630.18-643.92,1103.43-643.92"/>
  <path class="cls-5" d="m2949.46,2237.93c-226.81,342.42-615.54,568.22-1057.02,568.22-497.27,0-965.14-269.39-1145.43-719.41"/>
  <path class="cls-5" d="m3159.4,1539.2c0,151.51-26.59,296.8-75.37,431.47"/>
  <text class="cls-3" transform="translate(3067.13 2582.59)"><tspan x="0" y="0">T</tspan></text>
  <rect class="cls-5" x="2523.76" y="109.3" width="344.26" height="156.48" transform="translate(922.22 -1851.35) rotate(45)"/>
  <rect class="cls-5" x="2912.52" y="498.06" width="344.26" height="156.48" transform="translate(1310.98 -2012.38) rotate(45)"/>
  <line class="cls-5" x1="2817.6" y1="309.25" x2="2962.94" y2="454.59"/>
  <line class="cls-5" x1="2890.27" y1="381.92" x2="2803.15" y2="469.04"/>
  <path class="cls-4" d="m403.04,419.32c-1.43.08-15.38-5-26-2.17-11.32,3.02-19.3,13.95-19.3,13.95"/>
  <path class="cls-4" d="m535.13,419.32c1.43.08,15.38-5,26-2.17,11.32,3.02,19.3,13.95,19.3,13.95"/>
  <path class="cls-5" d="m733.02,1954.77l110.55,1042.62-202.54,11.52-17.66-386.47c-68.1-324.31-132.99-607.55-141.5-622.02l-5.43-94.15"/>
  <line class="cls-5" x1="484.19" y1="3009.31" x2="502.5" y2="3109.33"/>
  <path class="cls-5" d="m502.5,3109.33l-11.07,42.56h-102.15v-30.64l-88.53,19.58c-48.73,16.66-100.35,30.34-152.18,30.91-27.08.3-95,.54-99.68-37.37-1.38-11.22,19.59-39.52,23.69-45.29,8.19-11.54,25.88-11.54,38.48-9.5,18.15,2.93,36.83-2.97,53.77-9.19,7.34-2.7,14.68-5.39,21.99-8.16,16.3-6.18,32.34-11.98,46.33-22.67,13.01-9.96,66.61-38.9,77.55-51.02"/>
  <line class="cls-5" x1="650.18" y1="3009.31" x2="631.88" y2="3109.33"/>
  <path class="cls-5" d="m631.88,3109.33l11.07,42.56h102.15s0-30.64,0-30.64l88.53,19.58c48.73,16.66,100.35,30.34,152.18,30.91,27.08.3,95,.54,99.68-37.37,1.38-11.22-19.59-39.52-23.69-45.29-8.19-11.54-25.88-11.54-38.48-9.5-18.15,2.93-36.83-2.97-53.77-9.19-7.34-2.7-14.68-5.39-21.99-8.16-16.3-6.18-32.34-11.98-46.33-22.67-13.01-9.96-55.66-26.79-66.61-38.9"/>
  <path class="cls-5" d="m565.49,840.86c12.04,8.86,151.44,50.18,205.1,74.04,54.01,24.01,96.2,65.56,118.46,118.38,45.5,107.92,44.73,157,26.97,310.84,0,0-2.72,33.27-44.34,195.58l-438.19-69.36,55.92-168.62,243.07,53.28s18.45-157.84-11.25-213.95"/>
  <path class="cls-5" d="m257.41,1355h-52.08s-18.45-157.84,11.25-213.95"/>
  <path class="cls-5" d="m255.03,882.47s-34.15,8.57-87.81,32.43c-54.01,24.01-96.2,65.56-118.46,118.38-45.5,107.92-44.73,157-26.97,310.84,0,0,2.72,33.27,44.34,195.58l433.43-59.63"/>
  <polyline class="cls-5" points="756.44 2078.89 795.72 2073.55 766.19 1848.06"/>
  <path class="cls-5" d="m555.27,739.56c-2.55,5.96-32.77,71.08,10.21,101.29"/>
  <path class="cls-5" d="m388.41,739.56c2.55,5.96,32.77,71.08-10.21,101.29l-51.79,28.48,149.78,45.39,149.78-45.39"/>
  <path class="cls-5" d="m310.7,130.06c21.95-30.98,42.07-43.3,65.49-55.26,24-12.26,50.14,93.48,179.58,110.4,167.8,21.93,151.94,100,151.94,100-1.48,18.33-12.95,120.22-36.68,162.48"/>
  <path class="cls-5" d="m279.93,187.52c-9.98,22.98-45.09,85.23-45.04,97.67.18,46.68,12.95,120.22,36.68,162.48"/>
  <path class="cls-1" d="m547.61,456.17h.05c14.53.03,26.28,11.83,26.26,26.35-.03,14.51-11.8,26.26-26.31,26.26-.02,0-.03,0-.05,0-14.53-.03-26.28-11.83-26.26-26.35.03-14.51,11.8-26.26,26.31-26.26"/>
  <path class="cls-1" d="m364.65,482.02c.03-14.53,11.83-26.28,26.35-26.26,14.53.03,26.28,11.83,26.26,26.36-.03,14.53-11.83,26.28-26.35,26.26-14.53-.03-26.28-11.83-26.26-26.35Z"/>
  <path class="cls-5" d="m275.76,560.29c-12.03,2.96-27.53-17.93-34.61-46.67-7.08-28.74,7.22-54.89,19.25-57.85"/>
  <path class="cls-5" d="m679.4,453.38c12.03,2.96,27.9,31.5,20.82,60.24-7.08,28.74-22.57,49.64-34.61,46.67"/>
  <path class="cls-5" d="m528.98,265.48l-74.16,55.95v-57.17c-113.18.43-181.36,10.52-181.36,245.1,0,135.37,74.44,245.12,196.89,245.12s196.88-109.74,196.88-245.12c0-203.08-51.1-237.91-138.25-243.88Z"/>
  <path class="cls-5" d="m410.55,650.51c8.74,16.69,26.2,32.22,59.8,32.22s51.06-15.53,59.8-32.22"/>
  <path class="cls-5" d="m268.46,1854.49l-39.55,575.94s81.79,471.7,81.79,558.1c0,0,153.28,7.02,182.65,20.78,0,0-33.76-409.88-33.77-555.55,0,0-6.14-343.72,32.17-420.33"/>
  <line class="cls-5" x1="477.91" y1="978.31" x2="477.91" y2="1248.03"/>
  <line class="cls-5" x1="477.91" y1="1535.64" x2="477.91" y2="1730.09"/>
  <line class="cls-5" x1="309.42" y1="1910.65" x2="300.35" y2="2048.09"/>
  <line class="cls-5" x1="669.29" y1="1197.99" x2="531.55" y2="1197.99"/>
  <text class="cls-2" transform="translate(537.8 1154.85)"><tspan x="0" y="0">K</tspan></text>
  <path class="cls-5" d="m537.79,1306.73c90.78-86.51,181.56,45.85,181.56,45.85"/>
  <path class="cls-5" d="m470.35,1341.71c-90.78-86.51-232.7,13.29-232.7,13.29l197.42,47.66"/>
  <line class="cls-5" x1="228.54" y1="1517.36" x2="254.79" y2="1745.14"/>
  <line class="cls-5" x1="726.91" y1="1517.36" x2="725.29" y2="1745.14"/>
  <polygon class="cls-5" points="236.57 1854.49 349.2 1854.49 371.42 1745.14 233.79 1745.14 236.57 1854.49"/>
  <polygon class="cls-5" points="611.29 1854.49 766.87 1854.49 756.76 1745.14 589.55 1745.14 611.29 1854.49"/>
  <line class="cls-5" x1="553.37" y1="1796.87" x2="597.02" y2="1796.87"/>
  <line class="cls-5" x1="363.1" y1="1796.87" x2="410.37" y2="1796.87"/>
  <circle class="cls-5" cx="481.87" cy="1797.19" r="68.17"/>
</svg>